<svg width="113" height="20" viewBox="0 0 113 20" fill="none" xmlns="http://www.w3.org/2000/svg">
<mask id="mask0_17_14" style="mask-type:luminance" maskUnits="userSpaceOnUse" x="0" y="0" width="112" height="20">
<path d="M111.961 0H0V20H111.961V0Z" fill="white"/>
</mask>
<g mask="url(#mask0_17_14)">
<path d="M22.5967 5.58362C18.5294 5.58362 15.3514 8.67119 15.3514 12.8045C15.3514 16.9378 18.4491 19.999 22.5967 19.999C26.7443 19.999 29.8958 16.885 29.8958 12.7781C29.8958 8.69759 26.7981 5.58362 22.5967 5.58362ZM22.6241 17.0202C20.3079 17.0202 18.6107 15.2213 18.6107 12.8055C18.6107 10.3623 20.2805 8.56447 22.5967 8.56447C24.9403 8.56447 26.6365 10.3897 26.6365 12.8055C26.6365 15.2213 24.9403 17.0202 22.6241 17.0202ZM30.7841 8.72503H32.8044V19.7317H36.0363V5.85194H30.7841V8.72503ZM7.21784 8.56344C8.91509 8.56344 10.2617 9.61025 10.7729 11.1672H14.1938C13.5739 7.83881 10.8268 5.58362 7.24528 5.58362C3.178 5.58362 0 8.67119 0 12.8055C0 16.9399 3.09772 20 7.24528 20C10.7465 20 13.5474 17.7448 14.1674 14.3889H10.7729C10.2881 15.9459 8.9415 17.0202 7.24428 17.0202C4.90066 17.0202 3.25828 15.2213 3.25828 12.8055C3.25931 10.3623 4.87525 8.56344 7.21784 8.56344ZM92.1916 11.463L89.8216 11.1144C88.6906 10.9538 87.8825 10.5778 87.8825 9.69156C87.8825 8.72503 88.9334 8.24228 90.3603 8.24228C91.9225 8.24228 92.9194 8.91306 93.1347 10.0137H96.2591C95.9084 7.22191 93.7537 5.58463 90.4416 5.58463C87.0206 5.58463 84.7584 7.32966 84.7584 9.79928C84.7584 12.1612 86.24 13.5312 89.2291 13.9601L91.5991 14.3087C92.7578 14.4692 93.4041 14.9266 93.4041 15.7853C93.4041 16.886 92.2731 17.3423 90.7109 17.3423C88.7981 17.3423 87.7209 16.5638 87.5594 15.3829H84.3812C84.6781 18.0944 86.8053 20 90.6834 20C94.2122 20 96.5547 18.3892 96.5547 15.6237C96.5547 13.1541 94.8584 11.8654 92.1916 11.463ZM34.4203 0.134153C33.2353 0.134153 32.3463 0.992937 32.3463 2.17389C32.3463 3.35484 33.2344 4.21362 34.4203 4.21362C35.6053 4.21362 36.4947 3.35484 36.4947 2.17389C36.4947 0.992937 35.6053 0.134153 34.4203 0.134153ZM81.8497 10.6042C81.8497 7.59794 80.0184 5.58463 76.14 5.58463C72.4772 5.58463 70.4303 7.43738 70.0259 10.283H73.2312C73.3928 9.18238 74.2547 8.26972 76.0862 8.26972C77.7297 8.26972 78.5375 8.99434 78.5375 9.88059C78.5375 11.0351 77.0556 11.3298 75.2244 11.5179C72.7466 11.7862 69.6763 12.6449 69.6763 15.8667C69.6763 18.3637 71.535 19.9736 74.4978 19.9736C76.8138 19.9736 78.2681 19.0071 78.9959 17.4765C79.1038 18.8455 80.1272 19.7317 81.555 19.7317H83.4403V16.8596H81.8506V10.6042H81.8497ZM78.6716 14.0942C78.6716 15.9469 77.0556 17.3159 75.0891 17.3159C73.8769 17.3159 72.8534 16.8057 72.8534 15.7325C72.8534 14.3635 74.4966 13.9875 76.005 13.8269C77.4594 13.6928 78.2672 13.3706 78.6716 12.7527V14.0942ZM61.5153 5.58362C59.7103 5.58362 58.2022 6.33569 57.125 7.59694V0H53.8931V19.7317H57.0709V17.9064C58.1481 19.2215 59.6841 20 61.5153 20C65.3934 20 68.3297 16.9399 68.3297 12.8055C68.3297 8.67119 65.3397 5.58362 61.5153 5.58362ZM61.0306 17.0202C58.7144 17.0202 57.0172 15.2213 57.0172 12.8055C57.0172 10.3897 58.7409 8.56447 61.0569 8.56447C63.4006 8.56447 65.0428 10.3633 65.0428 12.8055C65.0428 15.2213 63.3466 17.0202 61.0306 17.0202ZM46.1628 5.58362C44.0622 5.58362 42.6881 6.44241 41.8803 7.65078V5.85194H38.6747V19.7307H41.9066V12.1876C41.9066 10.0666 43.2531 8.56344 45.2462 8.56344C47.105 8.56344 48.2625 9.87856 48.2625 11.7852V19.7317H51.4944V11.5443C51.4956 8.05325 49.6916 5.58362 46.1628 5.58362ZM111.961 12.3492C111.961 8.37644 109.052 5.58463 105.147 5.58463C100.999 5.58463 97.9553 8.69862 97.9553 12.8055C97.9553 17.1279 101.214 20 105.201 20C108.567 20 111.207 18.0131 111.88 15.1949H108.512C108.028 16.4297 106.843 17.1279 105.253 17.1279C103.179 17.1279 101.617 15.8392 101.267 13.584H111.96V12.3492H111.961ZM101.456 11.275C101.969 9.34194 103.423 8.40288 105.093 8.40288C106.924 8.40288 108.325 9.44966 108.648 11.275H101.456Z" fill="#0052FF"/>
</g>
</svg>
